<?xml version="1.0" encoding="UTF-8" standalone="no"?>
<svg
   xmlns:dc="http://purl.org/dc/elements/1.1/"
   xmlns:cc="http://creativecommons.org/ns#"
   xmlns:rdf="http://www.w3.org/1999/02/22-rdf-syntax-ns#"
   xmlns:svg="http://www.w3.org/2000/svg"
   xmlns="http://www.w3.org/2000/svg"
   xmlns:sodipodi="http://sodipodi.sourceforge.net/DTD/sodipodi-0.dtd"
   xmlns:inkscape="http://www.inkscape.org/namespaces/inkscape"
   version="1.1"
   width="11.729927cm"
   height="4.2064538cm"
   viewBox="0 0 46180.848 16560.858"
   id="svg472"
   sodipodi:docname="open_collector_schematic.svg"
   inkscape:version="0.92.4 5da689c313, 2019-01-14">
  <metadata
     id="metadata478">
    <rdf:RDF>
      <cc:Work
         rdf:about="">
        <dc:format>image/svg+xml</dc:format>
        <dc:type
           rdf:resource="http://purl.org/dc/dcmitype/StillImage" />
      </cc:Work>
    </rdf:RDF>
  </metadata>
  <defs
     id="defs476" />
  <sodipodi:namedview
     pagecolor="#ffffff"
     bordercolor="#666666"
     borderopacity="1"
     objecttolerance="10"
     gridtolerance="10"
     guidetolerance="10"
     inkscape:pageopacity="0"
     inkscape:pageshadow="2"
     inkscape:window-width="1462"
     inkscape:window-height="1078"
     id="namedview474"
     showgrid="false"
     inkscape:zoom="2.0210413"
     inkscape:cx="221.66791"
     inkscape:cy="79.492049"
     inkscape:window-x="0"
     inkscape:window-y="0"
     inkscape:window-maximized="0"
     inkscape:current-layer="g154" />
  <title
     id="title2">SVG Picture created as rw-rw.svg date 2020/02/02 12:14:49 </title>
  <desc
     id="desc4">Picture generated by Eeschema-SVG </desc>
  <g
     style="fill:#000000;fill-opacity:1;stroke:#000000;stroke-linecap:round;stroke-linejoin:round;stroke-opacity:1"
     id="g6"
     transform="translate(-21969.573,-25969.573)" />
  <g
     style="fill:#000000;fill-opacity:0;stroke:#000000;stroke-width:60;stroke-linecap:round;stroke-linejoin:round;stroke-opacity:1"
     id="g8"
     transform="translate(-21969.573,-25969.573)" />
  <g
     style="fill:#840000;fill-opacity:0;stroke:#840000;stroke-width:60;stroke-linecap:round;stroke-linejoin:round;stroke-opacity:1"
     id="g18"
     transform="translate(-21969.573,-25969.573)">
    <path
       d="m 65240,37220 -170,-240"
       id="path10"
       inkscape:connector-curvature="0" />
    <path
       d="m 64950,37220 v -500 h 190 l 50,30 30,20 20,50 v 70 l -20,50 -30,20 -50,20 h -190"
       id="path12"
       inkscape:connector-curvature="0" />
    <path
       d="m 65340,36580 h 570"
       id="path14"
       inkscape:connector-curvature="0" />
    <path
       d="m 65410,36720 120,500 90,-360 100,360 120,-500"
       id="path16"
       inkscape:connector-curvature="0" />
  </g>
  <g
     style="fill:#840000;fill-opacity:0;stroke:#840000;stroke-width:100;stroke-linecap:round;stroke-linejoin:round;stroke-opacity:1"
     id="g22"
     transform="translate(-21969.573,-25969.573)">
    <path
       style="fill:none;fill-opacity:0;stroke:#840000;stroke-width:100;stroke-linecap:round;stroke-linejoin:round;stroke-opacity:1"
       d="m 64500,37000 250,610 h 1300 l 250,-610 -250,-610 h -1300 z"
       id="path20"
       inkscape:connector-curvature="0" />
  </g>
  <g
     style="fill:#840000;fill-opacity:0;stroke:#840000;stroke-width:60;stroke-linecap:round;stroke-linejoin:round;stroke-opacity:1"
     id="g24"
     transform="translate(-21969.573,-25969.573)" />
  <g
     style="fill:#0000c2;fill-opacity:0;stroke:#0000c2;stroke-width:60;stroke-linecap:round;stroke-linejoin:round;stroke-opacity:1"
     id="g116"
     transform="translate(-21969.573,-25969.573)">
    <path
       d="m 44740,32870 h 90 l 50,30 50,40 20,100 v 160 l -20,100 -50,50 -50,20 h -90 l -50,-20 -50,-50 -20,-100 v -160 l 20,-100 50,-40 50,-30"
       id="path26"
       inkscape:connector-curvature="0" />
    <path
       d="m 45170,33040 v 500"
       id="path28"
       inkscape:connector-curvature="0" />
    <path
       d="m 45170,33060 50,-20 h 90 l 50,20 20,30 30,40 v 150 l -30,40 -20,30 -50,20 h -90 l -50,-20"
       id="path30"
       inkscape:connector-curvature="0" />
    <path
       d="m 45810,33350 -50,20 h -90 l -50,-20 -20,-50 v -190 l 20,-50 50,-20 h 90 l 50,20 20,50 v 50 l -230,40"
       id="path32"
       inkscape:connector-curvature="0" />
    <path
       d="m 46050,33040 v 330"
       id="path34"
       inkscape:connector-curvature="0" />
    <path
       d="m 46050,33090 20,-30 50,-20 h 70 l 50,20 20,50 v 260"
       id="path36"
       inkscape:connector-curvature="0" />
    <path
       d="m 47100,33370 v -500"
       id="path38"
       inkscape:connector-curvature="0" />
    <path
       d="m 47100,33350 -50,20 h -100 l -40,-20 -30,-30 -20,-40 v -150 l 20,-40 30,-30 40,-20 h 100 l 50,20"
       id="path40"
       inkscape:connector-curvature="0" />
    <path
       d="m 47330,33370 v -330"
       id="path42"
       inkscape:connector-curvature="0" />
    <path
       d="m 47330,33130 30,-40 20,-30 50,-20 h 50"
       id="path44"
       inkscape:connector-curvature="0" />
    <path
       d="m 47860,33370 v -260 l -30,-50 -40,-20 h -100 l -50,20"
       id="path46"
       inkscape:connector-curvature="0" />
    <path
       d="m 47860,33350 -50,20 h -120 l -50,-20 -20,-50 v -50 l 20,-50 50,-20 h 120 l 50,-20"
       id="path48"
       inkscape:connector-curvature="0" />
    <path
       d="m 48100,33370 v -330"
       id="path50"
       inkscape:connector-curvature="0" />
    <path
       d="m 48100,32870 -30,30 30,20 20,-20 -20,-30 v 50"
       id="path52"
       inkscape:connector-curvature="0" />
    <path
       d="m 48330,33040 v 330"
       id="path54"
       inkscape:connector-curvature="0" />
    <path
       d="m 48330,33090 30,-30 50,-20 h 70 l 50,20 20,50 v 260"
       id="path56"
       inkscape:connector-curvature="0" />
    <path
       d="m 49170,33370 v -330"
       id="path58"
       inkscape:connector-curvature="0" />
    <path
       d="m 49170,32870 -30,30 30,20 20,-20 -20,-30 v 50"
       id="path60"
       inkscape:connector-curvature="0" />
    <path
       d="m 49410,33040 v 330"
       id="path62"
       inkscape:connector-curvature="0" />
    <path
       d="m 49410,33090 20,-30 50,-20 h 70 l 50,20 20,50 v 260"
       id="path64"
       inkscape:connector-curvature="0" />
    <path
       d="m 49810,33040 120,330 120,-330"
       id="path66"
       inkscape:connector-curvature="0" />
    <path
       d="m 50430,33350 -50,20 h -90 l -50,-20 -20,-50 v -190 l 20,-50 50,-20 h 90 l 50,20 20,50 v 50 l -230,40"
       id="path68"
       inkscape:connector-curvature="0" />
    <path
       d="m 50670,33370 v -330"
       id="path70"
       inkscape:connector-curvature="0" />
    <path
       d="m 50670,33130 20,-40 30,-30 40,-20 h 50"
       id="path72"
       inkscape:connector-curvature="0" />
    <path
       d="m 50910,33040 h 190"
       id="path74"
       inkscape:connector-curvature="0" />
    <path
       d="m 50980,32870 v 430 l 20,50 50,20 h 50"
       id="path76"
       inkscape:connector-curvature="0" />
    <path
       d="m 51450,33350 -40,20 h -100 l -50,-20 -20,-50 v -190 l 20,-50 50,-20 h 100 l 40,20 30,50 v 50 l -240,40"
       id="path78"
       inkscape:connector-curvature="0" />
    <path
       d="m 51690,33370 v -330"
       id="path80"
       inkscape:connector-curvature="0" />
    <path
       d="m 51690,33130 30,-40 20,-30 50,-20 h 40"
       id="path82"
       inkscape:connector-curvature="0" />
    <path
       d="m 52530,33560 -30,-20 -50,-70 -20,-50 -20,-70 -30,-120 v -100 l 30,-120 20,-70 20,-40 50,-80 30,-20"
       id="path84"
       inkscape:connector-curvature="0" />
    <path
       d="m 52910,33350 -50,20 h -100 l -40,-20 -30,-50 v -190 l 30,-50 40,-20 h 100 l 50,20 20,50 v 50 l -240,40"
       id="path86"
       inkscape:connector-curvature="0" />
    <path
       d="m 53140,33320 30,30 -30,20 -20,-20 20,-30 v 50"
       id="path88"
       inkscape:connector-curvature="0" />
    <path
       d="m 53600,33040 v 400 l -30,50 -20,20 -50,30 h -70 l -50,-30"
       id="path90"
       inkscape:connector-curvature="0" />
    <path
       d="m 53600,33350 -50,20 h -100 l -40,-20 -30,-30 -20,-40 v -150 l 20,-40 30,-30 40,-20 h 100 l 50,20"
       id="path92"
       inkscape:connector-curvature="0" />
    <path
       d="m 53830,33320 30,30 -30,20 -20,-20 20,-30 v 50"
       id="path94"
       inkscape:connector-curvature="0" />
    <path
       d="m 54410,32870 h 330 l -210,500"
       id="path96"
       inkscape:connector-curvature="0" />
    <path
       d="m 55140,33040 v 330"
       id="path98"
       inkscape:connector-curvature="0" />
    <path
       d="m 55030,32850 -120,350 h 310"
       id="path100"
       inkscape:connector-curvature="0" />
    <path
       d="m 55640,33370 h -230 v -500"
       id="path102"
       inkscape:connector-curvature="0" />
    <path
       d="m 55740,32870 170,500 160,-500"
       id="path104"
       inkscape:connector-curvature="0" />
    <path
       d="m 56330,32870 h 50 l 50,30 20,20 30,50 20,90 v 120 l -20,100 -30,40 -20,30 -50,20 h -50 l -40,-20 -30,-30 -20,-40 -20,-100 v -120 l 20,-90 20,-50 30,-20 40,-30"
       id="path106"
       inkscape:connector-curvature="0" />
    <path
       d="m 56930,32870 h -100 l -40,30 -30,20 -40,70 -30,100 v 190 l 30,40 20,30 50,20 h 90 l 50,-20 20,-30 30,-40 v -120 l -30,-50 -20,-20 -50,-30 h -90 l -50,30 -20,20 -30,50"
       id="path108"
       inkscape:connector-curvature="0" />
    <path
       d="m 57170,33230 h 240"
       id="path110"
       inkscape:connector-curvature="0" />
    <path
       d="m 57120,33370 170,-500 160,500"
       id="path112"
       inkscape:connector-curvature="0" />
    <path
       d="m 57570,33560 30,-20 40,-70 30,-50 20,-70 30,-120 v -100 l -30,-120 -20,-70 -30,-40 -40,-80 -30,-20"
       id="path114"
       inkscape:connector-curvature="0" />
  </g>
  <g
     style="fill:#0000c2;fill-opacity:0;stroke:#0000c2;stroke-width:0;stroke-linecap:round;stroke-linejoin:round;stroke-opacity:1"
     id="g150"
     transform="translate(-21969.573,-25969.573)">
    <g
       id="g118" />
    <g
       style="fill:#840000;fill-opacity:0;stroke:#840000;stroke-width:0;stroke-linecap:round;stroke-linejoin:round;stroke-opacity:1"
       id="g120" />
    <g
       style="fill:#840000;fill-opacity:0;stroke:#840000;stroke-width:100;stroke-linecap:round;stroke-linejoin:round;stroke-opacity:1"
       id="g124">
      <path
         style="fill:none;fill-opacity:0;stroke:#840000;stroke-width:100;stroke-linecap:round;stroke-linejoin:round;stroke-opacity:1"
         d="m 36000,30500 v 2000 l 2500,-1000 z"
         id="path122"
         inkscape:connector-curvature="0" />
    </g>
    <g
       style="fill:#840000;fill-opacity:0;stroke:#840000;stroke-width:60;stroke-linecap:round;stroke-linejoin:round;stroke-opacity:1"
       id="g130">
      <path
         d="M 36000,31500 H 34500"
         id="path126"
         inkscape:connector-curvature="0" />
      <path
         d="m 38500,31500 h 1500"
         id="path128"
         inkscape:connector-curvature="0" />
    </g>
    <g
       style="fill:#840000;fill-opacity:0;stroke:#840000;stroke-width:60;stroke-linecap:round;stroke-linejoin:round;stroke-opacity:1"
       id="gwhut">
      <path
         d="m 25870,31720 v -330"
         id="path132"
         inkscape:connector-curvature="0" />
      <path
         d="m 25870,31480 20,-40 30,-30 40,-20 h 50"
         id="path134"
         inkscape:connector-curvature="0" />
      <path
         d="m 26130,31390 100,330 90,-240 100,240 90,-330"
         id="path136"
         inkscape:connector-curvature="0" />
      <path
         d="m 26580,31770 h 380"
         id="path138"
         inkscape:connector-curvature="0" />
      <path
         d="m 27160,31720 -50,-20 -30,-30 -20,-40 v -150 l 20,-40 30,-30 50,-20 h 70 l 40,20 30,30 20,40 v 150 l -20,40 -30,30 -40,20 h -70"
         id="path140"
         inkscape:connector-curvature="0" />
      <path
         d="m 27750,31390 v 330"
         id="path142"
         inkscape:connector-curvature="0" />
      <path
         d="m 27540,31390 v 260 l 20,50 50,20 h 70 l 50,-20 20,-30"
         id="path144"
         inkscape:connector-curvature="0" />
      <path
         d="m 27920,31390 h 190"
         id="path146"
         inkscape:connector-curvature="0" />
      <path
         d="m 27990,31220 v 430 l 20,50 50,20 h 50"
         id="path148"
         inkscape:connector-curvature="0" />
    </g>
  </g>
  <g
     style="fill:#840000;fill-opacity:0;stroke:#840000;stroke-width:100;stroke-linecap:round;stroke-linejoin:round;stroke-opacity:1"
     id="g154"
     transform="translate(-21969.573,-25969.573)">
    <path
       style="fill:none;fill-opacity:0;stroke:#840000;stroke-width:100;stroke-linecap:round;stroke-linejoin:round;stroke-opacity:1"
       d="m 28500,31500 -250,-440 h -2630 v 440 440 h 2630 z"
       id="path152"
       inkscape:connector-curvature="0" />
  </g>
  <g
     style="fill:#840000;fill-opacity:0;stroke:#840000;stroke-width:60;stroke-linecap:round;stroke-linejoin:round;stroke-opacity:1"
     id="g156"
     transform="translate(-21969.573,-25969.573)" />
  <g
     style="fill:#008400;fill-opacity:0;stroke:#008400;stroke-width:60;stroke-linecap:round;stroke-linejoin:round;stroke-opacity:1"
     id="g160"
     transform="translate(-21969.573,-25969.573)">
    <path
       d="M 34500,31500 H 28500"
       id="path158"
       inkscape:connector-curvature="0" />
  </g>
  <g
     style="fill:#840000;fill-opacity:0;stroke:#840000;stroke-width:60;stroke-linecap:round;stroke-linejoin:round;stroke-opacity:1"
     id="g178"
     transform="translate(-21969.573,-25969.573)">
    <path
       d="m 26580,37220 v -330"
       id="path162"
       inkscape:connector-curvature="0" />
    <path
       d="m 26580,36980 20,-40 30,-30 40,-20 h 50"
       id="path164"
       inkscape:connector-curvature="0" />
    <path
       d="m 26840,36890 100,330 90,-240 100,240 90,-330"
       id="path166"
       inkscape:connector-curvature="0" />
    <path
       d="m 27290,37270 h 380"
       id="path168"
       inkscape:connector-curvature="0" />
    <path
       d="m 27790,37220 v -330"
       id="path170"
       inkscape:connector-curvature="0" />
    <path
       d="m 27790,36720 -20,30 20,20 30,-20 -30,-30 v 50"
       id="path172"
       inkscape:connector-curvature="0" />
    <path
       d="m 28030,36890 v 330"
       id="path174"
       inkscape:connector-curvature="0" />
    <path
       d="m 28030,36940 30,-30 40,-20 h 70 l 50,20 30,50 v 260"
       id="path176"
       inkscape:connector-curvature="0" />
  </g>
  <g
     style="fill:#840000;fill-opacity:0;stroke:#840000;stroke-width:100;stroke-linecap:round;stroke-linejoin:round;stroke-opacity:1"
     id="g182"
     transform="translate(-21969.573,-25969.573)">
    <path
       style="fill:none;fill-opacity:0;stroke:#840000;stroke-width:100;stroke-linecap:round;stroke-linejoin:round;stroke-opacity:1"
       d="m 28500,37000 v -440 h -2130 l -250,440 250,440 h 2130 z"
       id="path180"
       inkscape:connector-curvature="0" />
  </g>
  <g
     style="fill:#840000;fill-opacity:0;stroke:#840000;stroke-width:60;stroke-linecap:round;stroke-linejoin:round;stroke-opacity:1"
     id="g184"
     transform="translate(-21969.573,-25969.573)" />
  <g
     style="fill:#0000c2;fill-opacity:0;stroke:#0000c2;stroke-width:60;stroke-linecap:round;stroke-linejoin:round;stroke-opacity:1"
     id="g206"
     transform="translate(-21969.573,-25969.573)">
    <path
       d="M 41500,26000 V 42500"
       id="path186"
       inkscape:connector-curvature="0" />
    <path
       d="M 41500,42500 H 22000"
       id="path188"
       inkscape:connector-curvature="0" />
    <path
       d="M 22000,42500 V 26000"
       id="path190"
       inkscape:connector-curvature="0" />
    <path
       d="M 22000,26000 H 41500"
       id="path192"
       inkscape:connector-curvature="0" />
    <path
       d="m 22810,41610 h -170"
       id="path194"
       inkscape:connector-curvature="0" />
    <path
       d="m 22640,41870 v -500 h 240"
       id="path196"
       inkscape:connector-curvature="0" />
    <path
       d="m 23070,41870 v -500 h 190 l 50,30 20,20 30,50 v 70 l -30,50 -20,20 -50,20 h -190"
       id="path198"
       inkscape:connector-curvature="0" />
    <path
       d="m 23830,41400 -40,-30 h -70 l -80,30 -40,40 -30,50 -20,100 v 70 l 20,90 30,50 40,50 80,20 h 40 l 70,-20 30,-30 v -160 h -100"
       id="path200"
       inkscape:connector-curvature="0" />
    <path
       d="m 24050,41730 h 240"
       id="path202"
       inkscape:connector-curvature="0" />
    <path
       d="m 24000,41870 170,-500 160,500"
       id="path204"
       inkscape:connector-curvature="0" />
  </g>
  <g
     style="fill:#0000c2;fill-opacity:0;stroke:#0000c2;stroke-width:0;stroke-linecap:round;stroke-linejoin:round;stroke-opacity:1"
     id="g222"
     transform="translate(-21969.573,-25969.573)">
    <g
       id="g208" />
    <g
       style="fill:#840000;fill-opacity:0;stroke:#840000;stroke-width:0;stroke-linecap:round;stroke-linejoin:round;stroke-opacity:1"
       id="g210" />
    <g
       style="fill:#840000;fill-opacity:0;stroke:#840000;stroke-width:100;stroke-linecap:round;stroke-linejoin:round;stroke-opacity:1"
       id="g214">
      <path
         style="fill:none;fill-opacity:0;stroke:#840000;stroke-width:100;stroke-linecap:round;stroke-linejoin:round;stroke-opacity:1"
         d="m 38500,38000 v -2000 l -2500,1000 z"
         id="path212"
         inkscape:connector-curvature="0" />
    </g>
    <g
       style="fill:#840000;fill-opacity:0;stroke:#840000;stroke-width:60;stroke-linecap:round;stroke-linejoin:round;stroke-opacity:1"
       id="g220">
      <path
         d="m 38500,37000 h 1500"
         id="path216"
         inkscape:connector-curvature="0" />
      <path
         d="M 36000,37000 H 34500"
         id="path218"
         inkscape:connector-curvature="0" />
    </g>
  </g>
  <g
     style="fill:#008400;fill-opacity:0;stroke:#008400;stroke-width:60;stroke-linecap:round;stroke-linejoin:round;stroke-opacity:1"
     id="g226"
     transform="translate(-21969.573,-25969.573)">
    <path
       d="M 34500,37000 H 28500"
       id="path224"
       inkscape:connector-curvature="0" />
  </g>
  <g
     style="fill:#0000c2;fill-opacity:0;stroke:#0000c2;stroke-width:60;stroke-linecap:round;stroke-linejoin:round;stroke-opacity:1"
     id="g274"
     transform="translate(-21969.573,-25969.573)">
    <path
       d="m 62640,39110 h 170"
       id="path228"
       inkscape:connector-curvature="0" />
    <path
       d="m 62880,39370 h -240 v -500 h 240"
       id="path230"
       inkscape:connector-curvature="0" />
    <path
       d="m 63050,39370 260,-330"
       id="path232"
       inkscape:connector-curvature="0" />
    <path
       d="m 63050,39040 260,330"
       id="path234"
       inkscape:connector-curvature="0" />
    <path
       d="m 63500,39040 v 500"
       id="path236"
       inkscape:connector-curvature="0" />
    <path
       d="m 63500,39060 50,-20 h 90 l 50,20 30,30 20,40 v 150 l -20,40 -30,30 -50,20 h -90 l -50,-20"
       id="path238"
       inkscape:connector-curvature="0" />
    <path
       d="m 64170,39370 v -260 l -30,-50 -40,-20 h -100 l -50,20"
       id="path240"
       inkscape:connector-curvature="0" />
    <path
       d="m 64170,39350 -50,20 h -120 l -50,-20 -20,-50 v -50 l 20,-50 50,-20 h 120 l 50,-20"
       id="path242"
       inkscape:connector-curvature="0" />
    <path
       d="m 64410,39040 v 330"
       id="path244"
       inkscape:connector-curvature="0" />
    <path
       d="m 64410,39090 20,-30 50,-20 h 70 l 50,20 20,50 v 260"
       id="path246"
       inkscape:connector-curvature="0" />
    <path
       d="m 64830,39350 50,20 h 100 l 50,-20 20,-50 v -20 l -20,-50 -50,-30 h -70 l -50,-20 -30,-50 v -20 l 30,-50 50,-20 h 70 l 50,20"
       id="path248"
       inkscape:connector-curvature="0" />
    <path
       d="m 65260,39370 v -330"
       id="path250"
       inkscape:connector-curvature="0" />
    <path
       d="m 65260,38870 -20,30 20,20 30,-20 -30,-30 v 50"
       id="path252"
       inkscape:connector-curvature="0" />
    <path
       d="m 65570,39370 -40,-20 -30,-30 -20,-40 v -150 l 20,-40 30,-30 40,-20 h 70 l 50,20 30,30 20,40 v 150 l -20,40 -30,30 -50,20 h -70"
       id="path254"
       inkscape:connector-curvature="0" />
    <path
       d="m 65950,39040 v 330"
       id="path256"
       inkscape:connector-curvature="0" />
    <path
       d="m 65950,39090 30,-30 50,-20 h 70 l 40,20 30,50 v 260"
       id="path258"
       inkscape:connector-curvature="0" />
    <path
       d="m 66790,39040 v 500"
       id="path260"
       inkscape:connector-curvature="0" />
    <path
       d="m 66790,39060 40,-20 h 100 l 50,20 20,30 30,40 v 150 l -30,40 -20,30 -50,20 h -100 l -40,-20"
       id="path262"
       inkscape:connector-curvature="0" />
    <path
       d="m 67310,39370 -50,-20 -20,-30 -20,-40 v -150 l 20,-40 20,-30 50,-20 h 70 l 50,20 20,30 30,40 v 150 l -30,40 -20,30 -50,20 h -70"
       id="path264"
       inkscape:connector-curvature="0" />
    <path
       d="m 67690,39370 v -330"
       id="path266"
       inkscape:connector-curvature="0" />
    <path
       d="m 67690,39130 30,-40 20,-30 50,-20 h 40"
       id="path268"
       inkscape:connector-curvature="0" />
    <path
       d="m 67930,39040 h 190"
       id="path270"
       inkscape:connector-curvature="0" />
    <path
       d="m 68000,38870 v 430 l 30,50 40,20 h 50"
       id="path272"
       inkscape:connector-curvature="0" />
  </g>
  <g
     style="fill:#0000c2;fill-opacity:0;stroke:#0000c2;stroke-width:0;stroke-linecap:round;stroke-linejoin:round;stroke-opacity:1"
     id="g298"
     transform="translate(-21969.573,-25969.573)">
    <g
       id="g276" />
    <g
       style="fill:#840000;fill-opacity:0;stroke:#840000;stroke-width:0;stroke-linecap:round;stroke-linejoin:round;stroke-opacity:1"
       id="g278" />
    <g
       style="fill:#840000;fill-opacity:0;stroke:#840000;stroke-width:60;stroke-linecap:round;stroke-linejoin:round;stroke-opacity:1"
       id="g282">
      <path
         style="fill:none;fill-opacity:0;stroke:#840000;stroke-width:60;stroke-linecap:round;stroke-linejoin:round;stroke-opacity:1"
         d="m 50000,31750 h 500 z"
         id="path280"
         inkscape:connector-curvature="0" />
    </g>
    <g
       style="fill:#840000;fill-opacity:0;stroke:#840000;stroke-width:100;stroke-linecap:round;stroke-linejoin:round;stroke-opacity:1"
       id="g286">
      <path
         style="fill:none;fill-opacity:0;stroke:#840000;stroke-width:100;stroke-linecap:round;stroke-linejoin:round;stroke-opacity:1"
         d="m 49500,30500 v 2000 l 2500,-1000 z"
         id="path284"
         inkscape:connector-curvature="0" />
    </g>
    <g
       style="fill:#840000;fill-opacity:0;stroke:#840000;stroke-width:60;stroke-linecap:round;stroke-linejoin:round;stroke-opacity:1"
       id="g296">
      <path
         style="fill:none;fill-opacity:0;stroke:#840000;stroke-width:60;stroke-linecap:round;stroke-linejoin:round;stroke-opacity:1"
         d="m 50250,31250 -250,250 250,250 250,-250 z"
         id="path288"
         inkscape:connector-curvature="0" />
      <path
         d="M 49500,31500 H 48000"
         id="path290"
         inkscape:connector-curvature="0" />
      <circle
         cx="52200"
         cy="31500"
         r="200"
         id="circle292" />
      <path
         d="m 52400,31500 h 1100"
         id="path294"
         inkscape:connector-curvature="0" />
    </g>
  </g>
  <g
     style="fill:#840000;fill-opacity:0;stroke:#840000;stroke-width:0;stroke-linecap:round;stroke-linejoin:round;stroke-opacity:1"
     id="g318"
     transform="translate(-21969.573,-25969.573)">
    <g
       id="g300" />
    <g
       style="fill:#840000;fill-opacity:0;stroke:#840000;stroke-width:60;stroke-linecap:round;stroke-linejoin:round;stroke-opacity:1"
       id="g304">
      <path
         style="fill:none;fill-opacity:0;stroke:#840000;stroke-width:60;stroke-linecap:round;stroke-linejoin:round;stroke-opacity:1"
         d="m 51500,37250 h -250 v -500"
         id="path302"
         inkscape:connector-curvature="0" />
    </g>
    <g
       style="fill:#840000;fill-opacity:0;stroke:#840000;stroke-width:100;stroke-linecap:round;stroke-linejoin:round;stroke-opacity:1"
       id="g308">
      <path
         style="fill:none;fill-opacity:0;stroke:#840000;stroke-width:100;stroke-linecap:round;stroke-linejoin:round;stroke-opacity:1"
         d="m 52000,38000 v -2000 l -2500,1000 z"
         id="path306"
         inkscape:connector-curvature="0" />
    </g>
    <g
       style="fill:#840000;fill-opacity:0;stroke:#840000;stroke-width:60;stroke-linecap:round;stroke-linejoin:round;stroke-opacity:1"
       id="g316">
      <path
         style="fill:none;fill-opacity:0;stroke:#840000;stroke-width:60;stroke-linecap:round;stroke-linejoin:round;stroke-opacity:1"
         d="m 51750,37250 h -250 v -500 h -500"
         id="path310"
         inkscape:connector-curvature="0" />
      <path
         d="m 52000,37000 h 1500"
         id="path312"
         inkscape:connector-curvature="0" />
      <path
         d="M 49500,37000 H 48000"
         id="path314"
         inkscape:connector-curvature="0" />
    </g>
  </g>
  <g
     style="fill:#0000c2;fill-opacity:0;stroke:#0000c2;stroke-width:60;stroke-linecap:round;stroke-linejoin:round;stroke-opacity:1"
     id="g428"
     transform="translate(-21969.573,-25969.573)">
    <path
       d="m 44620,38850 70,20 h 120 l 50,-20 20,-30 30,-40 v -50 l -30,-50 -20,-20 -50,-30 -90,-20 -50,-20 -30,-30 -20,-50 v -40 l 20,-50 30,-20 50,-30 h 110 l 80,30"
       id="path320"
       inkscape:connector-curvature="0" />
    <path
       d="m 45330,38850 -40,20 h -100 l -50,-20 -20,-30 -20,-40 v -150 l 20,-40 20,-30 50,-20 h 100 l 40,20"
       id="path322"
       inkscape:connector-curvature="0" />
    <path
       d="m 45550,38870 v -500"
       id="path324"
       inkscape:connector-curvature="0" />
    <path
       d="m 45760,38870 v -260 l -20,-50 -50,-20 h -70 l -50,20 -20,30"
       id="path326"
       inkscape:connector-curvature="0" />
    <path
       d="m 46000,38870 v -330"
       id="path328"
       inkscape:connector-curvature="0" />
    <path
       d="m 46000,38590 30,-30 40,-20 h 70 l 50,20 30,50 v 260"
       id="path330"
       inkscape:connector-curvature="0" />
    <path
       d="m 46220,38610 20,-50 50,-20 h 70 l 50,20 20,50 v 260"
       id="path332"
       inkscape:connector-curvature="0" />
    <path
       d="m 46670,38870 v -330"
       id="path334"
       inkscape:connector-curvature="0" />
    <path
       d="m 46670,38370 -30,30 30,20 20,-20 -20,-30 v 50"
       id="path336"
       inkscape:connector-curvature="0" />
    <path
       d="m 46830,38540 h 200"
       id="path338"
       inkscape:connector-curvature="0" />
    <path
       d="m 46910,38370 v 430 l 20,50 50,20 h 50"
       id="path340"
       inkscape:connector-curvature="0" />
    <path
       d="m 47120,38540 h 190"
       id="path342"
       inkscape:connector-curvature="0" />
    <path
       d="m 47190,38370 v 430 l 30,50 40,20 h 50"
       id="path344"
       inkscape:connector-curvature="0" />
    <path
       d="m 47480,38680 h 380"
       id="path346"
       inkscape:connector-curvature="0" />
    <path
       d="m 48030,38540 h 190"
       id="path348"
       inkscape:connector-curvature="0" />
    <path
       d="m 48100,38370 v 430 l 20,50 50,20 h 50"
       id="path350"
       inkscape:connector-curvature="0" />
    <path
       d="m 48380,38870 v -330"
       id="path352"
       inkscape:connector-curvature="0" />
    <path
       d="m 48380,38630 30,-40 20,-30 50,-20 h 50"
       id="path354"
       inkscape:connector-curvature="0" />
    <path
       d="m 48690,38870 v -330"
       id="path356"
       inkscape:connector-curvature="0" />
    <path
       d="m 48690,38370 -20,30 20,20 30,-20 -30,-30 v 50"
       id="path358"
       inkscape:connector-curvature="0" />
    <path
       d="m 49140,38540 v 400 l -20,50 -20,20 -50,30 h -70 l -50,-30"
       id="path360"
       inkscape:connector-curvature="0" />
    <path
       d="m 49140,38850 -40,20 h -100 l -50,-20 -20,-30 -20,-40 v -150 l 20,-40 20,-30 50,-20 h 100 l 40,20"
       id="path362"
       inkscape:connector-curvature="0" />
    <path
       d="m 49600,38540 v 400 l -30,50 -20,20 -50,30 h -70 l -50,-30"
       id="path364"
       inkscape:connector-curvature="0" />
    <path
       d="m 49600,38850 -50,20 h -100 l -40,-20 -30,-30 -20,-40 v -150 l 20,-40 30,-30 40,-20 h 100 l 50,20"
       id="path366"
       inkscape:connector-curvature="0" />
    <path
       d="m 50030,38850 -50,20 h -100 l -50,-20 -20,-50 v -190 l 20,-50 50,-20 h 100 l 50,20 20,50 v 50 l -240,40"
       id="path368"
       inkscape:connector-curvature="0" />
    <path
       d="m 50260,38870 v -330"
       id="path370"
       inkscape:connector-curvature="0" />
    <path
       d="m 50260,38630 30,-40 20,-30 50,-20 h 50"
       id="path372"
       inkscape:connector-curvature="0" />
    <path
       d="m 51170,38870 v -500"
       id="path374"
       inkscape:connector-curvature="0" />
    <path
       d="m 51170,38850 -50,20 h -90 l -50,-20 -30,-30 -20,-40 v -150 l 20,-40 30,-30 50,-20 h 90 l 50,20"
       id="path376"
       inkscape:connector-curvature="0" />
    <path
       d="m 51410,38870 v -330"
       id="path378"
       inkscape:connector-curvature="0" />
    <path
       d="m 51410,38630 20,-40 20,-30 50,-20 h 50"
       id="path380"
       inkscape:connector-curvature="0" />
    <path
       d="m 51720,38870 v -330"
       id="path382"
       inkscape:connector-curvature="0" />
    <path
       d="m 51720,38370 -30,30 30,20 20,-20 -20,-30 v 50"
       id="path384"
       inkscape:connector-curvature="0" />
    <path
       d="m 51910,38540 120,330 110,-330"
       id="path386"
       inkscape:connector-curvature="0" />
    <path
       d="m 52530,38850 -50,20 h -100 l -50,-20 -20,-50 v -190 l 20,-50 50,-20 h 100 l 50,20 20,50 v 50 l -240,40"
       id="path388"
       inkscape:connector-curvature="0" />
    <path
       d="m 52760,38870 v -330"
       id="path390"
       inkscape:connector-curvature="0" />
    <path
       d="m 52760,38630 30,-40 20,-30 50,-20 h 50"
       id="path392"
       inkscape:connector-curvature="0" />
    <path
       d="m 53600,39060 -30,-20 -40,-70 -30,-50 -20,-70 -30,-120 v -100 l 30,-120 20,-70 30,-40 40,-80 30,-20"
       id="path394"
       inkscape:connector-curvature="0" />
    <path
       d="m 53980,38850 -50,20 h -100 l -40,-20 -30,-50 v -190 l 30,-50 40,-20 h 100 l 50,20 20,50 v 50 l -240,40"
       id="path396"
       inkscape:connector-curvature="0" />
    <path
       d="m 54220,38820 20,30 -20,20 -30,-20 30,-30 v 50"
       id="path398"
       inkscape:connector-curvature="0" />
    <path
       d="m 54670,38540 v 400 l -30,50 -20,20 -50,30 h -70 l -50,-30"
       id="path400"
       inkscape:connector-curvature="0" />
    <path
       d="m 54670,38850 -50,20 h -90 l -50,-20 -30,-30 -20,-40 v -150 l 20,-40 30,-30 50,-20 h 90 l 50,20"
       id="path402"
       inkscape:connector-curvature="0" />
    <path
       d="m 54910,38820 20,30 -20,20 -30,-20 30,-30 v 50"
       id="path404"
       inkscape:connector-curvature="0" />
    <path
       d="m 55480,38370 h 330 l -210,500"
       id="path406"
       inkscape:connector-curvature="0" />
    <path
       d="m 56220,38540 v 330"
       id="path408"
       inkscape:connector-curvature="0" />
    <path
       d="m 56100,38350 -120,350 h 310"
       id="path410"
       inkscape:connector-curvature="0" />
    <path
       d="m 56720,38870 h -240 v -500"
       id="path412"
       inkscape:connector-curvature="0" />
    <path
       d="m 56810,38370 170,500 160,-500"
       id="path414"
       inkscape:connector-curvature="0" />
    <path
       d="m 57570,38870 h -280"
       id="path416"
       inkscape:connector-curvature="0" />
    <path
       d="m 57430,38870 v -500 l -50,70 -50,50 -40,20"
       id="path418"
       inkscape:connector-curvature="0" />
    <path
       d="m 57740,38370 h 330 l -210,500"
       id="path420"
       inkscape:connector-curvature="0" />
    <path
       d="m 58240,38730 h 240"
       id="path422"
       inkscape:connector-curvature="0" />
    <path
       d="m 58190,38870 170,-500 170,500"
       id="path424"
       inkscape:connector-curvature="0" />
    <path
       d="m 58640,39060 30,-20 50,-70 20,-50 20,-70 30,-120 v -100 l -30,-120 -20,-70 -20,-40 -50,-80 -30,-20"
       id="path426"
       inkscape:connector-curvature="0" />
  </g>
  <g
     style="fill:#008400;fill-opacity:0;stroke:#008400;stroke-width:60;stroke-linecap:round;stroke-linejoin:round;stroke-opacity:1"
     id="g440"
     transform="translate(-21969.573,-25969.573)">
    <path
       d="m 40000,31500 h 8000"
       id="path430"
       inkscape:connector-curvature="0" />
    <path
       d="m 40000,37000 h 8000"
       id="path432"
       inkscape:connector-curvature="0" />
    <path
       d="M 64500,37000 H 61500"
       id="path434"
       inkscape:connector-curvature="0" />
    <path
       d="m 53500,31500 h 8000"
       id="path436"
       inkscape:connector-curvature="0" />
    <path
       d="m 61500,31500 v 5500"
       id="path438"
       inkscape:connector-curvature="0" />
  </g>
  <g
     style="fill:#008400;fill-opacity:0;stroke:#008400;stroke-width:0;stroke-linecap:round;stroke-linejoin:round;stroke-opacity:1"
     id="g442"
     transform="translate(-21969.573,-25969.573)" />
  <g
     style="fill:#008400;fill-opacity:1;stroke:#008400;stroke-width:100;stroke-linecap:round;stroke-linejoin:round;stroke-opacity:1"
     id="g446"
     transform="translate(-21969.573,-25969.573)">
    <circle
       cx="61500"
       cy="37000"
       r="200"
       id="circle444" />
  </g>
  <g
     style="fill:#008400;fill-opacity:1;stroke:#008400;stroke-width:60;stroke-linecap:round;stroke-linejoin:round;stroke-opacity:1"
     id="g448"
     transform="translate(-21969.573,-25969.573)" />
  <g
     style="fill:#008400;fill-opacity:0;stroke:#008400;stroke-width:60;stroke-linecap:round;stroke-linejoin:round;stroke-opacity:1"
     id="g452"
     transform="translate(-21969.573,-25969.573)">
    <path
       d="M 61500,37000 H 53500"
       id="path450"
       inkscape:connector-curvature="0" />
  </g>
  <g
     style="fill:#0000c2;fill-opacity:0;stroke:#0000c2;stroke-width:60;stroke-linecap:round;stroke-linejoin:round;stroke-opacity:1"
     id="g470"
     transform="translate(-21969.573,-25969.573)">
    <path
       d="M 44000,34000 H 59000"
       id="path454"
       inkscape:connector-curvature="0" />
    <path
       d="M 44000,39500 H 59000"
       id="path456"
       inkscape:connector-curvature="0" />
    <path
       d="M 59000,39500 V 35000"
       id="path458"
       inkscape:connector-curvature="0" />
    <path
       d="M 59000,35000 H 44000"
       id="path460"
       inkscape:connector-curvature="0" />
    <path
       d="m 44000,35000 v 4500"
       id="path462"
       inkscape:connector-curvature="0" />
    <path
       d="M 59000,34000 V 29500"
       id="path464"
       inkscape:connector-curvature="0" />
    <path
       d="M 59000,29500 H 44000"
       id="path466"
       inkscape:connector-curvature="0" />
    <path
       d="m 44000,29500 v 4500"
       id="path468"
       inkscape:connector-curvature="0" />
  </g>
</svg>
